<?xml version="1.0" encoding="UTF-8"?>
<svg version="1.1" xmlns="http://www.w3.org/2000/svg" width="425" height="601">
<path d="M0 0 C140.25 0 280.5 0 425 0 C425 140.25 425 280.5 425 425 C284.75 425 144.5 425 0 425 C0 284.75 0 144.5 0 0 Z M8 9 C7.979375 31.295625 7.95875 53.59125 7.9375 76.5625 C7.928396 83.57830322 7.91929199 90.59410645 7.90991211 97.82250977 C7.90656577 104.16240668 7.90656577 104.16240668 7.90455627 110.50230408 C7.90363213 113.30581977 7.89991492 116.10931614 7.89442444 118.91282654 C7.88747967 122.50747053 7.88552443 126.1020871 7.88692772 129.69673717 C7.88649869 131.61339072 7.8811803 133.53004136 7.87557125 135.44668674 C7.88894108 146.81216044 7.97114831 158.50899481 10.5625 169.625 C10.73177002 170.36024902 10.90104004 171.09549805 11.07543945 171.85302734 C14.95390626 187.65443323 21.54385404 202.16089076 30 216 C30.66 216 31.32 216 32 216 C32.20625 216.66 32.4125 217.32 32.625 218 C34.49124252 222.07180186 36.97561527 225.68796998 40 229 C40.66 229 41.32 229 42 229 C42.20625 229.53625 42.4125 230.0725 42.625 230.625 C44.53250426 233.91978009 47.04819384 236.59363628 50 239 C50.66 239 51.32 239 52 239 C52 239.66 52 240.32 52 241 C52.66 241 53.32 241 54 241 C54 241.66 54 242.32 54 243 C55.71497772 244.58826222 55.71497772 244.58826222 57.875 246.125 C58.59429687 246.66382813 59.31359375 247.20265625 60.0546875 247.7578125 C61.89626006 249.17939632 61.89626006 249.17939632 64 249 C64 249.66 64 250.32 64 251 C66.42775862 252.65333435 68.83710086 254.15656129 71.375 255.625 C72.13796387 256.0679541 72.90092773 256.5109082 73.68701172 256.96728516 C94.89122454 269.03511059 116.46834718 275.40845917 141 275.375 C141.67742249 275.37445618 142.35484497 275.37391235 143.05279541 275.37335205 C162.5039132 275.30188893 183.62462639 272.22619313 200 261 C193.9801432 248.14463296 187.77562178 235.39228503 181.41601562 222.70166016 C179.99830038 219.87160721 178.58489815 217.03942932 177.171875 214.20703125 C172.54554898 204.95171516 167.84373008 195.74790776 162.97096252 186.61985779 C160.31069544 181.62474565 157.80281631 176.57959479 155.4375 171.4375 C152.25738821 164.61984858 148.97756271 157.86493636 145.56225586 151.16186523 C143.86149307 147.80616192 142.40215129 144.50537822 141 141 C185.22 141 229.44 141 275 141 C275 97.44 275 53.88 275 9 C186.89 9 98.78 9 8 9 Z M155 150 C157.20777468 156.12859809 157.20777468 156.12859809 159.9453125 161.83203125 C160.29537354 162.475354 160.64543457 163.11867676 161.00610352 163.78149414 C161.37533936 164.45172607 161.7445752 165.12195801 162.125 165.8125 C165.45857471 171.98129268 168.59081251 178.21154983 171.5625 184.5625 C175.15600958 192.23396841 178.87392194 199.82640525 182.68896484 207.38964844 C184.30755663 210.61236414 185.91361081 213.84127182 187.51953125 217.0703125 C196.04031268 234.20187901 196.04031268 234.20187901 204.92944336 251.14428711 C208.04452806 256.97262903 210.83892572 262.93722519 213.63085938 268.92553711 C216.06702115 274.11926934 218.6490673 279.20298207 221.375 284.25 C224.81962931 290.64256674 228.01930399 297.12385727 231.125 303.6875 C235.52116628 312.96987117 240.03148843 322.18911938 244.625 331.375 C244.94859497 332.02227051 245.27218994 332.66954102 245.60559082 333.33642578 C249.60745343 341.33111858 253.6894916 349.27492519 257.93017578 357.14599609 C261.03918915 362.96195716 263.8295943 368.91338987 266.61328125 374.89038086 C269.54231098 381.13961995 272.69557217 387.24487346 275.99414062 393.30664062 C278.24196574 397.45870065 280.20126301 401.63325486 282 406 C285.21307086 403.30770209 286.77280481 399.82370339 288.5625 396.125 C288.90547119 395.42882568 289.24844238 394.73265137 289.60180664 394.01538086 C292.87934043 387.33079252 296.03697323 380.58876887 299.21484375 373.85644531 C302.19846292 367.57670251 305.37397946 361.42993156 308.67553711 355.31274414 C311.87863072 349.33575033 314.76144067 343.23060356 317.62524414 337.08544922 C320.10246695 331.80407686 322.73117752 326.63394596 325.5 321.5 C328.66948004 315.62235476 331.61849211 309.67844851 334.4375 303.625 C337.83276257 296.33586987 341.47646866 289.22031642 345.26708984 282.12988281 C348.60954326 275.83866286 351.66888955 269.44127928 354.67578125 262.984375 C357.47141855 257.01903625 360.49871389 251.21078131 363.62524414 245.41357422 C366.42401979 240.18538597 368.99532948 234.87460549 371.5 229.5 C374.34026867 223.40525682 377.30816641 217.41829244 380.5 211.5 C383.66948486 205.62234582 386.61835733 199.6783928 389.4375 193.625 C392.52051048 187.00964161 395.76502849 180.50895807 399.1875 174.0625 C399.60684814 173.27246582 400.02619629 172.48243164 400.45825195 171.66845703 C401.26503548 170.15008756 402.07207281 168.63185291 402.87939453 167.11376953 C404.484063 164.0869243 406.06503008 161.05020002 407.625 158 C408.09164062 157.0925 408.55828125 156.185 409.0390625 155.25 C410.19638142 152.94794845 410.19638142 152.94794845 410 150 C325.85 150 241.7 150 155 150 Z " fill="#EB1B23" transform="translate(0,0)"/>
<path d="M0 0 C140.25 0 280.5 0 425 0 C425 4.95 425 9.9 425 15 C284.75 15 144.5 15 0 15 C0 10.05 0 5.1 0 0 Z " fill="#EB1B23" transform="translate(0,586)"/>
<path d="M0 0 C1.79244141 0.01740234 1.79244141 0.01740234 3.62109375 0.03515625 C5.41740234 0.04869141 5.41740234 0.04869141 7.25 0.0625 C8.17683594 0.07410156 9.10367187 0.08570313 10.05859375 0.09765625 C10.07841309 1.2278418 10.09823242 2.35802734 10.11865234 3.52246094 C10.19478255 7.71962589 10.28348854 11.91644751 10.37597656 16.11328125 C10.41423566 17.92896746 10.44909392 19.74472866 10.48046875 21.56054688 C10.52618605 24.17214748 10.58416911 26.78323313 10.64453125 29.39453125 C10.65608246 30.20508972 10.66763367 31.01564819 10.67953491 31.85076904 C10.76988481 37.29824381 10.76988481 37.29824381 13.05859375 42.09765625 C15.51241509 43.32456692 17.25843478 43.29941556 19.99609375 43.34765625 C21.30900391 43.38632812 21.30900391 43.38632812 22.6484375 43.42578125 C25.08703217 43.28625161 25.08703217 43.28625161 26.8125 41.83203125 C29.74410693 37.75167553 29.26961369 32.66741818 29.375 27.83203125 C29.3957811 27.03863342 29.41656219 26.2452356 29.43797302 25.42779541 C29.50319348 22.90116781 29.56222519 20.37443904 29.62109375 17.84765625 C29.66430515 16.13150009 29.70792028 14.41535403 29.75195312 12.69921875 C29.85884658 8.49880079 29.96019104 4.29828136 30.05859375 0.09765625 C34.34859375 0.09765625 38.63859375 0.09765625 43.05859375 0.09765625 C43.13313023 5.64775708 43.18737774 11.19756211 43.22338867 16.74804688 C43.23841168 18.63351522 43.25883606 20.518949 43.28491211 22.40429688 C43.32158238 25.12508715 43.33838521 27.84541266 43.3515625 30.56640625 C43.36704636 31.40006714 43.38253021 32.23372803 43.39848328 33.09265137 C43.40026238 39.37566176 42.46286998 45.01494564 38.48046875 50.12109375 C30.68409359 56.42377086 22.83291577 56.73537864 13.05859375 56.09765625 C10.56319319 55.62544342 8.44513961 54.98567332 6.05859375 54.09765625 C6.05859375 53.43765625 6.05859375 52.77765625 6.05859375 52.09765625 C5.29546875 51.87078125 4.53234375 51.64390625 3.74609375 51.41015625 C0.35684715 49.7549428 -0.38232335 48.51279022 -1.94140625 45.09765625 C-3.6091971 39.41008138 -4.22899731 34.38337737 -4.171875 28.4765625 C-4.17141678 27.69119614 -4.17095856 26.90582977 -4.17048645 26.09666443 C-4.16748879 24.45383167 -4.1596781 22.81100112 -4.1472168 21.16821289 C-4.12877837 18.6426399 -4.1267087 16.11743064 -4.12695312 13.59179688 C-4.12204379 11.99088222 -4.11621803 10.38997006 -4.109375 8.7890625 C-4.10826218 8.03186417 -4.10714935 7.27466583 -4.10600281 6.49452209 C-4.04760639 0.13438268 -4.04760639 0.13438268 0 0 Z " fill="#EB1B23" transform="translate(9.94140625,440.90234375)"/>
<path d="M0 0 C4.29 0 8.58 0 13 0 C15.77892699 6.51979024 18.09178361 13.12945305 20.25 19.875 C20.52021973 20.70749268 20.79043945 21.53998535 21.06884766 22.39770508 C21.31940918 23.19200928 21.5699707 23.98631348 21.828125 24.8046875 C22.0540332 25.51608887 22.27994141 26.22749023 22.51269531 26.96044922 C23 29 23 29 23 33 C23.66 33 24.32 33 25 33 C25.13535156 32.37738281 25.27070313 31.75476563 25.41015625 31.11328125 C27.87950349 20.51135328 31.48291905 10.29107522 35 0 C39.62 0 44.24 0 49 0 C47.61804702 6.76191403 45.73702289 13.18975581 43.5234375 19.72265625 C43.19332672 20.70874374 42.86321594 21.69483124 42.52310181 22.71080017 C41.4779884 25.82948033 40.42660382 28.94600316 39.375 32.0625 C38.66104125 34.18931316 37.94749546 36.31626499 37.234375 38.44335938 C35.49435379 43.63052181 33.74870896 48.81576028 32 54 C26.72 54 21.44 54 16 54 C15.62190186 52.80511963 15.24380371 51.61023926 14.85424805 50.37915039 C13.4403875 45.91164653 12.0256226 41.44442948 10.6105957 36.97729492 C10.00032597 35.05028875 9.39029579 33.12320669 8.78051758 31.19604492 C7.89989421 28.41304466 7.01838647 25.6303258 6.13671875 22.84765625 C5.73340584 21.57209618 5.73340584 21.57209618 5.32194519 20.27076721 C5.06190201 19.45059616 4.80185883 18.63042511 4.53393555 17.78540039 C4.2827597 16.99175079 4.03158386 16.1981012 3.77279663 15.38040161 C3.24561282 13.75654724 2.69968965 12.13868665 2.13760376 10.52658081 C1.86249969 9.73720123 1.58739563 8.94782166 1.30395508 8.13452148 C1.05382156 7.43447495 0.80368805 6.73442841 0.54597473 6.01316833 C0 4 0 4 0 0 Z " fill="#EB1B23" transform="translate(192,512)"/>
<path d="M0 0 C3.96 0 7.92 0 12 0 C12 17.82 12 35.64 12 54 C7.33333333 54 2.66666667 54 -2 54 C-3.485 54.495 -3.485 54.495 -5 55 C-12.33354186 55.59865648 -17.63383187 55.23419861 -23.6875 50.75 C-28.08248444 44.89002074 -29.16184836 38.19213667 -29 31 C-27.90959199 24.77883287 -25.37044701 20.47970819 -21 16 C-17.32077133 13.54718089 -15.37740649 13.73176081 -11 13.75 C-9.14375 13.74226562 -9.14375 13.74226562 -7.25 13.734375 C-4 14 -4 14 -1 16 C-0.67 10.72 -0.34 5.44 0 0 Z M-13.3125 24.875 C-16.80452064 29.27235933 -16.57421545 33.5574362 -16 39 C-14.75429693 42.70570703 -14.75429693 42.70570703 -12 45 C-9.1274637 45.85940635 -6.8725363 45.85940635 -4 45 C-0.4582134 41.63530273 0.26100662 38.6604629 0.4375 33.9375 C0.27290348 29.88964483 -0.32837621 27.1853976 -3 24 C-6.82181054 22.08909473 -9.99317122 22.18365234 -13.3125 24.875 Z " fill="#EB1B23" transform="translate(96,512)"/>
<path d="M0 0 C3.96 0 7.92 0 12 0 C12 17.82 12 35.64 12 54 C7.71 54 3.42 54 -1 54 C-2.98 54.66 -4.96 55.32 -7 56 C-12.9517485 56.66130539 -17.07906125 55.19861019 -22 52 C-26.5354653 48.12799605 -27.7249845 42.79415752 -28.29296875 37.0234375 C-28.46310761 30.62297564 -27.68140197 25.80970427 -25 20 C-24.34 20 -23.68 20 -23 20 C-23 19.34 -23 18.68 -23 18 C-22.34 18 -21.68 18 -21 18 C-21 17.34 -21 16.68 -21 16 C-17.6042877 13.94298197 -14.9382341 13.73030883 -11 13.75 C-9.453125 13.74226563 -9.453125 13.74226563 -7.875 13.734375 C-5 14 -5 14 -1 16 C-0.67 10.72 -0.34 5.44 0 0 Z M-15 27 C-16.67967818 32.03903455 -16.87064828 37.05140623 -14.6875 41.9375 C-12.98902321 44.21872261 -12.98902321 44.21872261 -10 46 C-6.1560133 45.93135738 -3.87848566 45.85014741 -1.0625 43.125 C0.54517291 38.39655027 0.66735683 33.93844051 0 29 C-1.80980058 25.64851744 -2.93767123 24.47525234 -6.375 22.9375 C-10.18983648 23.02832944 -12.09749256 24.62522119 -15 27 Z " fill="#EB1B23" transform="translate(318,441)"/>
<path d="M0 0 C3.96 0 7.92 0 12 0 C12 17.82 12 35.64 12 54 C7.66666667 54 3.33333333 54 -1 54 C-1.70125 54.33 -2.4025 54.66 -3.125 55 C-7.70599063 56.59338804 -11.78748882 56.86691239 -16.29296875 55.1015625 C-18.24016395 54.12968808 -20.13076025 53.11358964 -22 52 C-22 51.34 -22 50.68 -22 50 C-22.66 50 -23.32 50 -24 50 C-28.15154489 42.82746485 -29.01663402 36.20568888 -28 28 C-26.28630375 22.00206314 -22.98231632 18.5742704 -18 15 C-15.2889923 13.64449615 -13.08660831 13.83082793 -10.0625 13.8125 C-8.47115234 13.79123047 -8.47115234 13.79123047 -6.84765625 13.76953125 C-4 14 -4 14 -1 16 C-0.67 10.72 -0.34 5.44 0 0 Z M-13 25 C-16.03679707 29.55519561 -16.30932821 33.34087595 -15.3125 38.6875 C-13.93183305 42.1720404 -13.14786398 43.95814228 -10 46 C-6.58285175 45.94005003 -4.11541921 45.8477186 -1.33984375 43.73828125 C1.26753707 40.35552771 1.10658422 36.13797557 1 32 C0.21220402 28.43213059 -0.94772642 25.75632163 -4 23.5625 C-7.65022642 22.53587382 -9.84876256 23.06859641 -13 25 Z " fill="#EB1B23" transform="translate(405,441)"/>
<path d="M0 0 C0.72848145 -0.01844971 1.45696289 -0.03689941 2.20751953 -0.0559082 C8.34715188 0.01470246 11.99943608 2.12443608 16.375 6.5 C16.67797852 9.41748047 16.67797852 9.41748047 16.75390625 13.1171875 C16.77090073 13.77075226 16.7878952 14.42431702 16.80540466 15.09768677 C16.85857804 17.19002577 16.89881835 19.28234686 16.9375 21.375 C16.98153754 23.46040625 17.02839146 25.54566457 17.08030701 27.63088989 C17.12673301 29.52836491 17.16429239 31.42605066 17.20141602 33.32373047 C17.34245895 35.90455822 17.61746356 38.04611622 18.375 40.5 C13.375 40.5 8.375 40.5 3.375 40.5 C2.075625 40.995 2.075625 40.995 0.75 41.5 C-6.0904418 43.52679757 -10.73686513 42.89005974 -16.9609375 39.765625 C-19.03377684 38.1890993 -19.73199104 36.93911402 -20.625 34.5 C-20.85546875 32.24609375 -20.85546875 32.24609375 -20.8125 29.9375 C-20.80605469 29.17308594 -20.79960937 28.40867187 -20.79296875 27.62109375 C-20.625 25.5 -20.625 25.5 -19.625 22.5 C-18.965 22.5 -18.305 22.5 -17.625 22.5 C-17.625 21.84 -17.625 21.18 -17.625 20.5 C-11.06401392 17.7241982 -4.66507955 16.4973446 2.375 15.5 C2.9284764 13.42446352 3.375 11.65634036 3.375 9.5 C1.91552295 9.56006078 0.45720728 9.6488689 -1 9.75 C-1.81210937 9.79640625 -2.62421875 9.8428125 -3.4609375 9.890625 C-4.17507813 10.09171875 -4.88921875 10.2928125 -5.625 10.5 C-6.285 11.82 -6.945 13.14 -7.625 14.5 C-11.585 14.5 -15.545 14.5 -19.625 14.5 C-19.625 8.15625 -19.625 8.15625 -16.625 4.5 C-11.26230534 0.53160595 -6.4884338 0.09788885 0 0 Z M-2.125 24.375 C-2.9190625 24.53742188 -3.713125 24.69984375 -4.53125 24.8671875 C-6.81846996 25.37860896 -6.81846996 25.37860896 -8.625 27.5 C-8.45992354 30.07540213 -8.45992354 30.07540213 -7.625 32.5 C-4.75029507 33.93735246 -2.80605412 33.88172649 0.375 33.5 C3.15371234 30.94065969 4.28813862 29.47719051 4.625 25.6875 C4.5425 24.965625 4.46 24.24375 4.375 23.5 C2.09442981 23.5 0.10692846 23.90397614 -2.125 24.375 Z " fill="#EB1B23" transform="translate(355.625,454.5)"/>
<path d="M0 0 C1.24330078 -0.0299707 1.24330078 -0.0299707 2.51171875 -0.06054688 C8.12462437 -0.05608511 11.19652634 0.78090925 15.5 4.4375 C16.8718405 7.181181 16.69860716 9.47941913 16.78125 12.546875 C16.83732422 14.39152344 16.83732422 14.39152344 16.89453125 16.2734375 C16.94673828 18.21089844 16.94673828 18.21089844 17 20.1875 C17.06917899 22.72406303 17.14197131 25.26053063 17.21875 27.796875 C17.24904297 28.92577148 17.27933594 30.05466797 17.31054688 31.21777344 C17.49514599 34.35500693 17.92386393 37.35039035 18.5 40.4375 C13.16666667 40.4375 7.83333333 40.4375 2.5 40.4375 C1.015 40.9325 1.015 40.9325 -0.5 41.4375 C-2.45475009 41.5822963 -4.4151138 41.65817502 -6.375 41.6875 C-7.91800781 41.72617187 -7.91800781 41.72617187 -9.4921875 41.765625 C-13.86157798 41.28896422 -16.4371613 39.5003387 -19.5 36.4375 C-21.17672618 31.91033932 -21.21997997 27.10482203 -19.3125 22.6875 C-15.25745037 17.65364528 -10.24807768 16.74114005 -4.1875 15.75 C-3.07665039 15.55567383 -3.07665039 15.55567383 -1.94335938 15.35742188 C-0.13047666 15.0416294 1.68456851 14.73829417 3.5 14.4375 C3.17 12.7875 2.84 11.1375 2.5 9.4375 C-0.87400578 9.02024322 -0.87400578 9.02024322 -4.5 9.4375 C-4.9434375 10.2625 -5.386875 11.0875 -5.84375 11.9375 C-6.3903125 12.7625 -6.936875 13.5875 -7.5 14.4375 C-10.41796875 14.92578125 -10.41796875 14.92578125 -13.6875 14.75 C-14.77417969 14.70488281 -15.86085937 14.65976562 -16.98046875 14.61328125 C-17.81191406 14.55527344 -18.64335937 14.49726562 -19.5 14.4375 C-18.9914457 10.06393298 -18.23947331 6.93269008 -15.5 3.4375 C-10.34540892 0.12897177 -5.92750839 -0.05070186 0 0 Z M-6.5 25.4375 C-7.16 26.0975 -7.82 26.7575 -8.5 27.4375 C-8.4049261 29.4855428 -8.4049261 29.4855428 -7.5 31.4375 C-4.76167198 33.69391931 -4.76167198 33.69391931 -2.0625 33.3125 C1.09247555 32.23519128 2.50214683 31.10130423 4.5 28.4375 C4.83498301 25.76915034 4.83498301 25.76915034 4.5 23.4375 C0.37806318 23.4375 -2.60879026 24.14043009 -6.5 25.4375 Z " fill="#EB1B23" transform="translate(257.5,525.5625)"/>
<path d="M0 0 C5.11809969 2.89283895 8.33952065 6.09416114 11.25 11.1875 C12 14 12 14 12 24 C3.09 24 -5.82 24 -15 24 C-14.01 25.98 -13.02 27.96 -12 30 C-9.52470711 30.93267109 -9.52470711 30.93267109 -6.8125 30.875 C-5.91144531 30.91367187 -5.01039063 30.95234375 -4.08203125 30.9921875 C-3.05142578 30.99605469 -3.05142578 30.99605469 -2 31 C-2 30.34 -2 29.68 -2 29 C-1.34 29 -0.68 29 0 29 C0 28.34 0 27.68 0 27 C3.63 27 7.26 27 11 27 C10.5020163 30.73487777 10.12508244 32.81237635 8 36 C7.34 36 6.68 36 6 36 C6 36.66 6 37.32 6 38 C-0.44861114 41.59922482 -6.71822435 41.81828034 -14 41 C-19.42264023 39.31019838 -22.83340279 35.52371031 -26 31 C-28.69115439 25.23324058 -29.04010176 19.24240417 -27.1015625 13.19921875 C-26.13045879 10.76457222 -25.11021123 8.37406775 -24 6 C-23.34 6 -22.68 6 -22 6 C-22 5.34 -22 4.68 -22 4 C-15.46902947 -1.09734285 -8.03476337 -1.17877866 0 0 Z M-13 10 C-13.66 11.65 -14.32 13.3 -15 15 C-10.38 15 -5.76 15 -1 15 C-1.5739739 10.79819816 -1.5739739 10.79819816 -5 9 C-8.10857 8.76685725 -10.01413769 9.00471256 -13 10 Z " fill="#EB1B23" transform="translate(140,526)"/>
<path d="M0 0 C1.27746094 -0.01933594 2.55492187 -0.03867187 3.87109375 -0.05859375 C8.82981694 0.60781667 11.7782659 2.57274227 15.20703125 6.15625 C19.51605204 12.72786699 18.8174953 15.49744364 19.5625 24.4375 C6.1975 24.9325 6.1975 24.9325 -7.4375 25.4375 C-5.18267367 30.49912978 -5.18267367 30.49912978 -2.28125 31.03125 C-1.12109375 30.98484375 -1.12109375 30.98484375 0.0625 30.9375 C0.8359375 30.9271875 1.609375 30.916875 2.40625 30.90625 C4.65021104 30.63192005 4.65021104 30.63192005 5.98828125 28.91796875 C7.5625 27.4375 7.5625 27.4375 10.26171875 27.14453125 C11.24785156 27.17933594 12.23398437 27.21414063 13.25 27.25 C14.74080078 27.29060547 14.74080078 27.29060547 16.26171875 27.33203125 C17.02097656 27.36683594 17.78023438 27.40164063 18.5625 27.4375 C17.6191747 33.42203688 14.79193281 36.76542539 10.0625 40.3125 C3.46471283 42.43321731 -4.28756478 42.70711509 -10.75 39.9375 C-11.636875 39.4425 -12.52375 38.9475 -13.4375 38.4375 C-13.4375 37.7775 -13.4375 37.1175 -13.4375 36.4375 C-14.0975 36.4375 -14.7575 36.4375 -15.4375 36.4375 C-19.84351442 31.7644544 -20.24130793 26.98470599 -20.53515625 20.69921875 C-20.35216982 14.58747214 -18.95544529 10.27501271 -15.0625 5.5625 C-9.94029434 1.41595256 -6.70375985 0.00675102 0 0 Z M-6.4375 11.4375 C-6.7675 12.7575 -7.0975 14.0775 -7.4375 15.4375 C-2.8175 15.4375 1.8025 15.4375 6.5625 15.4375 C6.5625 14.4475 6.5625 13.4575 6.5625 12.4375 C5.9025 12.4375 5.2425 12.4375 4.5625 12.4375 C4.5625 11.7775 4.5625 11.1175 4.5625 10.4375 C-1.27746546 9.11986811 -1.27746546 9.11986811 -6.4375 11.4375 Z " fill="#EB1B23" transform="translate(337.4375,525.5625)"/>
<path d="M0 0 C2.93116397 1.80046927 4.69020887 4.00758482 5.83984375 7.2265625 C6.49984375 7.2265625 7.15984375 7.2265625 7.83984375 7.2265625 C10.31231881 13.09869076 9.83984375 16.11630877 9.83984375 23.2265625 C0.92984375 23.2265625 -7.98015625 23.2265625 -17.16015625 23.2265625 C-15.02795585 29.08501152 -15.02795585 29.08501152 -12.2578125 30.06640625 C-11.58621094 30.09863281 -10.91460937 30.13085938 -10.22265625 30.1640625 C-9.52269531 30.20273437 -8.82273438 30.24140625 -8.1015625 30.28125 C-5.99013022 30.22177303 -4.1438518 29.97044833 -2.16015625 29.2265625 C-2.16015625 28.5665625 -2.16015625 27.9065625 -2.16015625 27.2265625 C1.79984375 27.2265625 5.75984375 27.2265625 9.83984375 27.2265625 C9.17984375 29.2065625 8.51984375 31.1865625 7.83984375 33.2265625 C7.17984375 33.2265625 6.51984375 33.2265625 5.83984375 33.2265625 C5.17984375 34.5465625 4.51984375 35.8665625 3.83984375 37.2265625 C3.17984375 37.2265625 2.51984375 37.2265625 1.83984375 37.2265625 C1.83984375 37.8865625 1.83984375 38.5465625 1.83984375 39.2265625 C-5.37696611 41.63216579 -12.03938258 42.36747989 -19.19921875 39.41015625 C-23.31655872 36.9249889 -27.18276852 32.93710871 -28.83203125 28.36328125 C-29.92329784 21.25705712 -30.47268408 13.27094176 -26.59375 6.94921875 C-19.89408928 -1.10132723 -10.0156515 -3.58607413 0 0 Z M-15.16015625 10.2265625 C-15.82015625 11.8765625 -16.48015625 13.5265625 -17.16015625 15.2265625 C-12.21015625 15.2265625 -7.26015625 15.2265625 -2.16015625 15.2265625 C-3.56193158 10.36780138 -3.56193158 10.36780138 -6.09765625 8.9140625 C-9.70449693 7.71178227 -12.07458334 8.13633569 -15.16015625 10.2265625 Z " fill="#EB1B23" transform="translate(189.16015625,455.7734375)"/>
<path d="M0 0 C1.04800781 -0.01160156 1.04800781 -0.01160156 2.1171875 -0.0234375 C6.18628563 -0.00808241 9.34061531 0.4488966 13 2.25 C13 2.91 13 3.57 13 4.25 C13.66 4.25 14.32 4.25 15 4.25 C17.29633824 7.69450737 17.54016485 10.18812283 18 14.25 C14.04 14.25 10.08 14.25 6 14.25 C5.34 12.93 4.68 11.61 4 10.25 C1.36 10.25 -1.28 10.25 -4 10.25 C-4.33 11.24 -4.66 12.23 -5 13.25 C-3.90300781 13.50394531 -2.80601562 13.75789063 -1.67578125 14.01953125 C-0.22124786 14.36674245 1.23317342 14.71442358 2.6875 15.0625 C3.40873047 15.22814453 4.12996094 15.39378906 4.87304688 15.56445312 C9.92320944 16.78663859 13.93697657 18.32925405 17.8125 21.9375 C19.56843468 25.35695174 19.63652647 28.53812094 19 32.25 C16.57721518 37.18875367 14.07802731 39.23994752 9 41.25 C1.78605683 43.34673551 -5.36894875 42.84723695 -12 39.25 C-15.71819841 36.40201824 -16.829002 35.05237525 -17.8125 30.4375 C-17.874375 29.385625 -17.93625 28.33375 -18 27.25 C-14.04 27.25 -10.08 27.25 -6 27.25 C-5.34 28.57 -4.68 29.89 -4 31.25 C0.59750097 32.43701 0.59750097 32.43701 5 31.25 C5.65213292 29.22536745 5.65213292 29.22536745 6 27.25 C4.91460937 27.00765625 3.82921875 26.7653125 2.7109375 26.515625 C1.26547493 26.17772466 -0.17982939 25.83914687 -1.625 25.5 C-2.33785156 25.34273438 -3.05070313 25.18546875 -3.78515625 25.0234375 C-8.94146199 23.79349301 -13.16779833 22.08220167 -17 18.25 C-17.12524459 16.46162378 -17.17573676 14.66771786 -17.1875 12.875 C-17.20167969 11.89789063 -17.21585938 10.92078125 -17.23046875 9.9140625 C-17 7.25 -17 7.25 -15 4.25 C-14.34 4.25 -13.68 4.25 -13 4.25 C-13 3.59 -13 2.93 -13 2.25 C-8.68531175 0.12636438 -4.71753113 -0.05222359 0 0 Z " fill="#EB1B23" transform="translate(249,454.75)"/>
<path d="M0 0 C3.14678485 1.2563873 3.82505753 2.17845301 6 5 C8.49250518 12.26338278 8.22950508 19.38720696 8.125 27 C8.11597656 28.25167969 8.10695312 29.50335938 8.09765625 30.79296875 C8.07422805 33.86206238 8.03836179 36.9310567 8 40 C4.04 40 0.08 40 -4 40 C-4.06058594 38.31390625 -4.12117188 36.6278125 -4.18359375 34.890625 C-4.2680088 32.67707492 -4.35265632 30.46353369 -4.4375 28.25 C-4.47681641 27.13882812 -4.51613281 26.02765625 -4.55664062 24.8828125 C-4.59853516 23.81289063 -4.64042969 22.74296875 -4.68359375 21.640625 C-4.72025146 20.65610352 -4.75690918 19.67158203 -4.79467773 18.65722656 C-4.97598742 16.31076449 -5.34331819 14.25281588 -6 12 C-10.58555003 10.81960078 -10.58555003 10.81960078 -14.875 12.125 C-17.05444787 15.75741311 -17.13803664 19.92856741 -17.31640625 24.08203125 C-17.35830078 25.01337891 -17.40019531 25.94472656 -17.44335938 26.90429688 C-17.48267578 27.86400391 -17.52199219 28.82371094 -17.5625 29.8125 C-17.60568359 30.79154297 -17.64886719 31.77058594 -17.69335938 32.77929688 C-17.79902166 35.18604898 -17.89997465 37.59300703 -18 40 C-21.63 40 -25.26 40 -29 40 C-29 27.13 -29 14.26 -29 1 C-25.37 1 -21.74 1 -18 1 C-17.67 1.66 -17.34 2.32 -17 3 C-16.47148438 2.5153125 -15.94296875 2.030625 -15.3984375 1.53125 C-10.78702532 -1.41284377 -5.26012661 -0.67956915 0 0 Z " fill="#EB1B23" transform="translate(90,455)"/>
<path d="M0 0 C4.29 0 8.58 0 13 0 C14.98 6.93 16.96 13.86 19 21 C20.38444649 18.23110703 21.38904291 16.03138792 22.25390625 13.14453125 C22.46853516 12.44005859 22.68316406 11.73558594 22.90429688 11.00976562 C23.12150391 10.28466797 23.33871094 9.55957031 23.5625 8.8125 C25.86703125 1.13296875 25.86703125 1.13296875 27 0 C29.01964199 -0.07244053 31.04167124 -0.08377188 33.0625 -0.0625 C34.71958984 -0.04896484 34.71958984 -0.04896484 36.41015625 -0.03515625 C37.26480469 -0.02355469 38.11945313 -0.01195312 39 0 C36.91404589 9.95298102 33.46527286 19.27009211 29.85546875 28.75195312 C28.55738174 32.16313611 27.27982542 35.58192966 26 39 C21.38 39 16.76 39 12 39 C10.9790625 35.90625 10.9790625 35.90625 9.9375 32.75 C8.38244103 28.04364718 6.78051734 23.35794464 5.109375 18.69140625 C4.79105713 17.79905273 4.47273926 16.90669922 4.14477539 15.98730469 C3.51383321 14.22433542 2.87771956 12.46320715 2.23608398 10.70410156 C1.94548096 9.89038086 1.65487793 9.07666016 1.35546875 8.23828125 C0.96331177 7.156073 0.96331177 7.156073 0.56323242 6.05200195 C0 4 0 4 0 0 Z " fill="#EB1B23" transform="translate(120,456)"/>
<path d="M0 0 C4.29 0 8.58 0 13 0 C13 17.82 13 35.64 13 54 C8.71 54 4.42 54 0 54 C0 36.18 0 18.36 0 0 Z " fill="#EB1B23" transform="translate(300,512)"/>
<path d="M0 0 C4.29 0 8.58 0 13 0 C13 17.82 13 35.64 13 54 C8.71 54 4.42 54 0 54 C0 36.18 0 18.36 0 0 Z " fill="#EB1B23" transform="translate(281,512)"/>
<path d="M0 0 C3.96 0 7.92 0 12 0 C12 17.82 12 35.64 12 54 C8.04 54 4.08 54 0 54 C0 36.18 0 18.36 0 0 Z " fill="#EB1B23" transform="translate(157,512)"/>
<path d="M0 0 C0 3.63 0 7.26 0 11 C-3.63 11.66 -7.26 12.32 -11 13 C-12.97166994 18.84287556 -13.41276761 24.29602521 -13.625 30.4375 C-13.68300781 31.82098633 -13.68300781 31.82098633 -13.7421875 33.23242188 C-13.83568217 35.48798068 -13.91889361 37.74396176 -14 40 C-17.96 40 -21.92 40 -26 40 C-26 27.13 -26 14.26 -26 1 C-22.37 1 -18.74 1 -15 1 C-14.67 1.99 -14.34 2.98 -14 4 C-13.175 3.34 -12.35 2.68 -11.5 2 C-7.65507519 -0.61234126 -4.54344936 -0.31334134 0 0 Z " fill="#EB1B23" transform="translate(230,455)"/>
<path d="M0 0 C4.29 0 8.58 0 13 0 C13 12.87 13 25.74 13 39 C8.71 39 4.42 39 0 39 C0 26.13 0 13.26 0 0 Z " fill="#EB1B23" transform="translate(104,456)"/>
<path d="M0 0 C3.96 0 7.92 0 12 0 C12 12.87 12 25.74 12 39 C8.04 39 4.08 39 0 39 C0 26.13 0 13.26 0 0 Z " fill="#EB1B23" transform="translate(273,456)"/>
<path d="M0 0 C1.50046875 0.00386719 1.50046875 0.00386719 3.03125 0.0078125 C4.0315625 0.00523437 5.031875 0.00265625 6.0625 0 C8.53125 0.1328125 8.53125 0.1328125 9.53125 1.1328125 C9.67382189 4.46899481 9.57353157 7.79256856 9.53125 11.1328125 C5.24125 11.1328125 0.95125 11.1328125 -3.46875 11.1328125 C-3.56640625 3.41796875 -3.56640625 3.41796875 -3.46875 1.1328125 C-2.46875 0.1328125 -2.46875 0.1328125 0 0 Z " fill="#EB1B23" transform="translate(107.46875,440.8671875)"/>
<path d="M0 0 C3.96 0 7.92 0 12 0 C12 3.63 12 7.26 12 11 C8.04 11 4.08 11 0 11 C0 7.37 0 3.74 0 0 Z " fill="#EB1B23" transform="translate(273,441)"/>
</svg>
