<svg xmlns="http://www.w3.org/2000/svg" width="425" height="601" viewBox="0 0 425 601" version="1.1"><path d="M 0 212.495 L 0 425 211.418 425 C 327.698 425, 423.548 424.727, 424.418 424.393 L 426 423.786 426 211.902 L 426 0.018 213 0.005 L 0 -0.009 0 212.495 M 0.491 213 C 0.491 329.875, 0.607 377.687, 0.750 319.250 C 0.892 260.812, 0.892 165.187, 0.750 106.750 C 0.607 48.312, 0.491 96.125, 0.491 213 M 8 78.776 C 8 163.790, 8.608 170.326, 18.716 193.979 C 48.158 262.873, 126.553 293.611, 196.250 263.589 C 201.238 261.440, 203.619 267.231, 170.554 201.109 C 154.359 168.722, 141.384 141.949, 141.721 141.612 C 142.058 141.275, 172.183 141, 208.667 141 L 275 141 275 74.500 L 275 8 141.500 8 L 8 8 8 78.776 M 218.137 278.250 C 253.407 348.788, 282.371 406.629, 282.502 406.786 C 282.696 407.020, 409.748 153.642, 410.833 150.856 C 411.017 150.384, 353.452 150, 282.588 150 L 154.010 150 218.137 278.250 M 7.006 460.750 C 7.009 471.274, 7.493 481.234, 8.109 483.453 C 12.737 500.122, 42.016 501.678, 50.741 485.718 L 52.500 482.500 52.824 462.250 L 53.147 442 46.574 442 L 40 442 40 461.326 L 40 480.651 37.750 482.718 C 33.465 486.653, 24.552 486.418, 21.420 482.288 L 20.064 480.500 20.032 461.250 L 20 442 13.500 442 L 7 442 7.006 460.750 M 105.195 446.750 L 105.500 451.500 110.500 451.500 L 115.500 451.500 115.805 446.750 L 116.110 442 110.500 442 L 104.890 442 105.195 446.750 M 273.193 446.698 L 273.500 451.500 277.824 451.811 C 283.360 452.209, 285.188 450.709, 284.801 446.086 L 284.500 442.500 278.693 442.198 L 272.886 441.897 273.193 446.698 M 318 450.485 L 318 458.971 314.750 456.989 C 306.138 451.738, 293.960 457.282, 291.044 467.781 C 287.507 480.517, 293.222 493.308, 303.620 495.926 L 308.217 497.083 311.859 495.915 C 313.861 495.273, 316.288 494.059, 317.250 493.219 L 319 491.690 319 493.345 L 319 495 324.500 495 L 330 495 330 468.500 L 330 442 324 442 L 318 442 318 450.485 M 406 450.520 L 406 459.041 402.040 457.020 C 393.549 452.689, 384.344 455.813, 380 464.500 L 377.500 469.500 377.575 476 L 377.650 482.500 379.797 486.655 C 384.805 496.347, 397.093 499.751, 404.118 493.393 L 406 491.690 406 493.345 L 406 495 411.500 495 L 417 495 417 468.500 L 417 442 411.500 442 L 406 442 406 450.520 M 75.640 457.470 L 72 459.940 72 457.970 L 72 456 66.500 456 L 61 456 61 475.500 L 61 495 66.500 495 L 72 495 72.006 484.250 C 72.009 478.337, 72.479 471.816, 73.050 469.758 L 74.090 466.016 76.443 465.425 C 84.265 463.462, 85.966 466.550, 85.985 482.750 L 86 495 92.122 495 L 98.243 495 97.808 479.750 L 97.374 464.500 95.620 461.171 C 92.310 454.886, 82.206 453.014, 75.640 457.470 M 171.459 456.880 C 163.355 460.561, 159.377 468.192, 160.294 478.300 L 160.838 484.309 163.669 488.316 C 171.503 499.402, 188.532 499.252, 196.291 488.027 C 199.105 483.957, 198.508 483, 193.155 483 L 188.310 483 186.500 485 C 182.585 489.326, 172 486.377, 172 480.961 L 172 479 185.500 479 L 199 479 198.978 474.750 C 198.903 460.155, 184.639 450.893, 171.459 456.880 M 221.500 456.142 C 220.400 456.764, 218.488 458.190, 217.250 459.311 L 215 461.349 215 458.674 L 215 456 209.500 456 L 204 456 204 475.500 L 204 495 209.916 495 L 215.833 495 216.166 482.911 L 216.500 470.822 219.306 468.411 C 221.258 466.733, 223.327 466, 226.108 466 L 230.105 466 229.802 460.750 L 229.500 455.500 226.500 455.255 C 224.850 455.121, 222.600 455.519, 221.500 456.142 M 239.383 456.914 C 234.118 459.305, 232 462.380, 232 467.634 L 232 471.822 235.045 474.384 C 236.720 475.794, 239.982 477.432, 242.295 478.026 C 251.297 480.336, 254.355 481.568, 255.407 483.309 L 256.500 485.117 254.559 486.559 C 250.689 489.432, 242 487.277, 242 483.443 L 242 482 236.375 482 L 230.750 482 231.372 485.250 C 232.300 490.092, 237.689 494.586, 244.188 495.935 L 249.614 497.062 254.836 495.942 C 261.076 494.603, 265.449 491.201, 267.011 486.467 L 268.155 483 267.027 479.582 C 265.580 475.196, 262.941 473.530, 253.390 470.970 C 244.172 468.500, 244 468.409, 244 466.008 C 244 461.837, 253.435 462.383, 255.056 466.648 L 255.992 469.110 260.746 468.805 L 265.500 468.500 265.827 466.192 C 267.030 457.707, 250.448 451.889, 239.383 456.914 M 345.741 456.369 C 339.967 458.522, 336 463.036, 336 467.450 L 336 469 341.763 469 L 347.526 469 348.513 466.764 C 350.740 461.719, 360 462.209, 360 467.372 C 360 470.254, 359.592 470.437, 349.518 472.062 L 341.664 473.329 338.582 476.082 L 335.500 478.836 335.500 484.337 L 335.500 489.839 337.832 492.321 C 339.115 493.687, 342.173 495.310, 344.629 495.928 L 349.093 497.052 353.296 495.928 C 355.608 495.310, 358.082 494.328, 358.792 493.745 L 360.085 492.685 361.242 493.842 C 361.879 494.479, 364.672 495, 367.450 495.001 L 372.500 495.002 372.206 479.751 C 371.765 456.875, 363.637 449.693, 345.741 456.369 M 105 475.500 L 105 495 110.500 495 L 116 495 116 475.500 L 116 456 110.500 456 L 105 456 105 475.500 M 120 456.856 C 120 457.327, 122.855 465.989, 126.345 476.106 L 132.689 494.500 139.200 494.792 L 145.711 495.085 151.865 476.792 C 159.350 454.540, 159.300 456, 152.589 456 L 147.178 456 144.496 464.750 C 143.021 469.563, 141.245 475.246, 140.548 477.381 L 139.282 481.262 138.588 478.381 C 138.206 476.796, 136.498 471.113, 134.792 465.750 L 131.690 456 125.845 456 C 122.630 456, 120 456.385, 120 456.856 M 273 475.500 L 273 495.100 278.750 494.800 L 284.500 494.500 284.500 475.500 L 284.500 456.500 278.750 456.200 L 273 455.900 273 475.500 M 174.635 466.073 C 173.186 467.212, 172 468.787, 172 469.573 L 172 471 179.500 471 L 187 471 187 469.573 C 187 467.579, 182.183 464, 179.500 464 C 178.273 464, 176.084 464.933, 174.635 466.073 M 306.736 464.692 C 302.686 465.748, 300.454 475.864, 302.875 482.189 C 304.933 487.566, 312.427 488.816, 315.927 484.365 L 318 481.730 318 475.320 L 318 468.909 315.545 466.455 C 313.226 464.135, 310.762 463.642, 306.736 464.692 M 393.360 465.460 C 388.363 468.961, 387.621 479.839, 392.058 484.562 L 394.349 487 398.151 487 L 401.954 487 403.727 484.294 C 404.956 482.418, 405.500 479.632, 405.500 475.207 L 405.500 468.827 402.694 466.413 C 399.496 463.662, 396.381 463.344, 393.360 465.460 M 352.966 478.922 C 347.981 479.899, 347 480.726, 347 483.952 C 347 488.168, 353.252 489.613, 357.777 486.443 L 360 484.887 360 481.443 L 360 478 358.250 478.115 C 357.288 478.178, 354.910 478.542, 352.966 478.922 M 96 521.023 L 96 530.145 93.365 528.073 L 90.730 526 85.115 526.004 C 72.326 526.012, 64.878 538.787, 68.931 553.763 C 71.899 564.735, 86.647 571.154, 93.869 564.618 C 96.097 562.602, 97 562.568, 97 564.500 L 97 566 102.516 566 L 108.033 566 107.766 539.250 L 107.500 512.500 101.750 512.200 L 96 511.900 96 521.023 M 157 539 L 157 566 163 566 L 169 566 169 539 L 169 512 163 512 L 157 512 157 539 M 192 512.714 C 192 513.106, 195.850 525.275, 200.555 539.756 L 209.111 566.085 216.227 565.793 L 223.343 565.500 231.625 540.500 C 236.180 526.750, 239.928 514.712, 239.953 513.750 L 240 512 233.979 512 L 227.957 512 227.019 514.250 C 226.503 515.487, 223.859 523.475, 221.142 532 L 216.204 547.500 215.508 545.500 C 213.697 540.292, 212.827 537.597, 208.974 525.250 L 204.839 512 198.419 512 C 194.889 512, 192 512.321, 192 512.714 M 281.451 513.267 C 281.184 513.964, 281.085 526.002, 281.232 540.017 L 281.500 565.500 287.250 565.800 L 293 566.100 293 539.050 L 293 512 287.469 512 C 283.926 512, 281.762 512.456, 281.451 513.267 M 301 539 L 301 566 306.500 566 L 312 566 312 539 L 312 512 306.500 512 L 301 512 301 539 M 121.840 528.887 C 113.566 534.134, 110.393 546.726, 114.881 556.500 C 121.621 571.178, 145.754 570.330, 150.436 555.250 L 151.135 553 146.462 553 L 141.789 553 138.818 555.500 C 133.926 559.616, 126.204 557.713, 124.717 552.024 L 124.187 550 137.625 550 L 151.063 550 151.643 548.488 C 153.713 543.093, 148.272 531.645, 141.950 528.092 L 138.228 526 132.310 526 L 126.392 526 121.840 528.887 M 246.088 527.798 C 242.080 529.798, 239.139 533.493, 238.766 537 L 238.500 539.500 244.250 539.800 L 250 540.100 250 538.705 C 250 535.995, 253.626 533.853, 257.652 534.184 L 261.500 534.500 261.827 536.805 C 262.331 540.362, 260.508 541.662, 254.075 542.334 C 245.388 543.242, 240.458 545.515, 238.577 549.479 C 233.019 561.191, 245.407 571.035, 258.709 565.477 C 261.194 564.439, 262.680 564.280, 263.377 564.977 C 263.940 565.540, 266.689 566, 269.488 566 L 274.575 566 274.174 549.750 C 273.737 532.077, 273.426 530.840, 268.686 527.950 L 265.500 526.007 257.500 526.052 C 252.045 526.082, 248.415 526.638, 246.088 527.798 M 328.500 527.665 C 309.332 537.793, 316.199 567.077, 337.718 566.978 C 346.062 566.940, 356 559.702, 356 553.662 C 356 552.191, 346.227 553.021, 344.914 554.604 C 340.249 560.224, 329 557.378, 329 550.578 C 329 550.291, 335.188 549.931, 342.750 549.778 L 356.500 549.500 356.233 545 C 355.354 530.162, 340.888 521.120, 328.500 527.665 M 82.521 537.388 C 77.783 542.126, 78.401 551.810, 83.707 555.984 C 88.866 560.042, 94.086 557.688, 95.899 550.486 L 97.052 545.907 95.997 541.990 C 94.141 535.095, 87.188 532.721, 82.521 537.388 M 126.455 537.455 C 122.535 541.374, 123.298 542, 132 542 C 140.569 542, 140.590 541.990, 138.850 538.684 C 136.449 534.123, 130.387 533.522, 126.455 537.455 M 331.455 537.455 C 327.537 541.372, 328.299 542, 336.969 542 L 344.937 542 344.317 540.250 C 342.291 534.537, 335.786 533.123, 331.455 537.455 M 256.500 549.470 C 248.682 551.080, 246.012 555.330, 251.105 558.056 C 256.331 560.853, 262.460 556.912, 261.810 551.174 L 261.500 548.441 256.500 549.470 M 0 593.495 L 0 601 211.418 601 C 327.698 601, 423.548 600.727, 424.418 600.393 L 426 599.786 425.921 592.143 C 425.878 587.939, 425.653 584.950, 425.421 585.500 C 425.142 586.163, 353.461 586.414, 212.500 586.245 L 0 585.991 0 593.495" stroke="none" fill="#ec1c24" fill-rule="evenodd"/></svg>