<?xml version="1.0" standalone="no"?>
<!DOCTYPE svg PUBLIC "-//W3C//DTD SVG 20010904//EN"
 "http://www.w3.org/TR/2001/REC-SVG-20010904/DTD/svg10.dtd">
<svg version="1.0" xmlns="http://www.w3.org/2000/svg"
 width="900.000000pt" height="1272.000000pt" viewBox="0 0 900.000000 1272.000000"
 preserveAspectRatio="xMidYMid meet">
<metadata>
Created by potrace 1.10, written by Peter Selinger 2001-2011
</metadata>
<g transform="translate(0.000000,1272.000000) scale(0.100000,-0.100000)"
fill="#ec1c24" stroke="none">
<path d="M13 12673 c-10 -4 -13 -906 -13 -4463 l0 -4459 33 -6 c17 -3 2030 -4
4472 -3 l4440 3 0 4465 0 4465 -4460 2 c-2453 1 -4466 -1 -4472 -4z m5809
-130 c17 -15 18 -73 18 -1418 0 -1076 -3 -1404 -12 -1413 -9 -9 -336 -12
-1409 -12 -769 0 -1400 -4 -1403 -8 -2 -4 277 -570 620 -1257 344 -686 624
-1255 622 -1263 -3 -15 -92 -70 -116 -71 -7 -1 -41 -14 -75 -30 -34 -16 -73
-32 -87 -35 -14 -4 -34 -11 -45 -16 -46 -19 -122 -44 -155 -51 -19 -4 -66 -17
-105 -27 -216 -61 -587 -98 -816 -82 -249 17 -416 42 -574 85 -33 9 -79 20
-102 25 -23 5 -50 14 -60 19 -10 5 -60 24 -112 41 -52 18 -111 40 -130 51 -20
10 -39 19 -43 19 -7 0 -173 80 -208 100 -126 73 -206 122 -255 156 -167 118
-252 190 -395 334 -186 186 -226 235 -371 451 -79 118 -141 224 -185 319 -14
30 -39 82 -55 116 -16 33 -29 67 -29 75 0 8 -4 19 -9 24 -19 21 -99 278 -126
405 -9 41 -20 95 -25 120 -6 25 -18 101 -28 170 -16 114 -17 253 -17 1648 0
1343 2 1524 15 1532 9 6 1074 10 2834 10 2610 0 2821 -1 2838 -17z m2876
-2979 c14 -4 22 -14 21 -28 -1 -35 -2722 -5460 -2741 -5464 -12 -2 -209 382
-860 1685 -465 928 -850 1697 -856 1708 -6 11 -87 173 -180 361 -93 187 -174
349 -180 360 -6 10 -40 78 -75 149 -35 72 -69 139 -74 150 -6 11 -21 39 -32
62 -11 23 -25 50 -30 60 -6 10 -39 77 -74 148 -35 72 -69 139 -75 150 -6 11
-40 79 -75 150 -35 72 -69 139 -75 150 -39 71 -162 328 -162 340 0 7 10 16 23
18 35 7 5419 7 5445 1z"/>
<path d="M160 2972 c0 -221 4 -392 11 -427 14 -75 49 -151 91 -196 70 -77 220
-129 367 -129 68 1 190 26 251 53 54 23 122 89 154 146 45 83 52 165 50 556
-1 193 -2 354 -3 358 0 4 -49 6 -108 5 l-108 -3 -5 -395 c-5 -406 -7 -428 -47
-468 -50 -50 -73 -57 -188 -57 -102 0 -113 2 -151 27 -27 17 -50 44 -65 75
-24 47 -24 53 -29 433 l-5 385 -107 3 -108 3 0 -369z"/>
<path d="M2234 3327 c-3 -8 -4 -43 -2 -78 l3 -64 95 0 95 0 0 75 0 75 -93 3
c-72 2 -94 0 -98 -11z"/>
<path d="M5792 3263 l3 -78 92 -3 c106 -3 107 -3 101 99 l-3 54 -98 3 -98 3 3
-78z"/>
<path d="M6750 3155 c0 -210 -4 -220 -64 -167 -56 49 -113 65 -208 60 -68 -3
-93 -10 -137 -33 -99 -54 -151 -135 -178 -276 -16 -82 -15 -93 0 -183 34 -186
122 -289 273 -321 54 -11 74 -11 130 1 64 13 120 40 144 69 27 32 67 7 58 -36
-2 -11 18 -15 90 -17 l92 -3 0 546 0 545 -100 0 -100 0 0 -185z m-101 -267
c83 -48 119 -149 106 -297 -10 -114 -56 -185 -139 -211 -175 -56 -317 160
-248 379 18 57 72 123 115 141 43 17 126 11 166 -12z"/>
<path d="M8610 3173 c0 -169 -5 -213 -21 -213 -5 0 -32 16 -60 35 -66 45 -117
58 -209 53 -118 -7 -206 -65 -263 -173 -84 -161 -59 -415 53 -539 51 -56 98
-83 178 -99 106 -22 200 0 267 64 34 32 52 27 57 -16 l3 -30 95 0 c70 0 95 3
94 13 -1 6 -2 251 -2 542 l-2 530 -95 0 -95 0 0 -167z m-96 -295 c70 -47 95
-110 96 -238 0 -79 -4 -103 -24 -145 -45 -98 -134 -144 -227 -116 -147 44
-208 289 -110 443 37 58 89 86 161 87 46 1 63 -4 104 -31z"/>
<path d="M5192 3049 c-81 -8 -141 -29 -189 -65 -40 -30 -53 -53 -69 -122 -21
-91 13 -171 92 -209 21 -11 57 -24 79 -31 22 -6 63 -18 92 -26 28 -9 59 -16
67 -16 33 0 112 -33 139 -58 85 -80 -34 -193 -174 -165 -49 9 -108 49 -115 77
-11 47 -34 57 -120 54 l-79 -3 2 -37 c2 -39 37 -102 74 -137 93 -86 346 -109
489 -44 103 46 144 109 144 223 1 86 -18 123 -83 164 -37 23 -161 66 -192 66
-31 0 -142 32 -169 48 -34 21 -60 53 -60 76 0 10 16 34 36 52 32 31 41 34 93
34 78 0 125 -21 157 -70 l27 -40 83 0 c84 0 84 0 84 26 0 92 -108 182 -240
199 -86 11 -95 11 -168 4z"/>
<path d="M1670 3044 c-57 -22 -99 -46 -124 -73 -39 -40 -56 -40 -56 2 0 55
-10 61 -99 59 -45 0 -86 -4 -91 -7 -6 -4 -10 -148 -10 -391 l0 -385 103 3 102
3 0 230 c1 127 5 248 9 270 19 89 82 146 167 149 66 2 112 -26 140 -86 21 -45
22 -60 23 -305 l1 -258 98 -3 99 -3 -4 313 c-3 275 -6 318 -22 353 -42 93
-103 127 -231 132 -49 1 -97 0 -105 -3z"/>
<path d="M3665 3032 c-142 -53 -230 -160 -253 -306 -14 -86 2 -223 33 -288 72
-152 239 -231 430 -202 92 14 143 38 200 94 45 44 93 125 82 137 -4 4 -42 6
-84 4 -73 -2 -79 -4 -121 -42 -120 -105 -300 -61 -340 84 -7 24 -7 48 -2 63
l9 24 278 2 278 3 3 48 c9 148 -86 311 -217 370 -67 29 -227 34 -296 9z m239
-156 c21 -15 42 -40 48 -55 6 -14 15 -36 21 -48 23 -50 12 -53 -183 -53 l-180
0 0 38 c0 49 34 98 90 129 63 34 152 29 204 -11z"/>
<path d="M4684 3026 c-28 -13 -67 -43 -87 -67 -31 -36 -41 -42 -55 -33 -11 7
-17 26 -18 53 -1 23 -4 44 -7 47 -2 3 -42 6 -88 7 l-84 2 -3 -393 -2 -392 100
0 100 0 0 223 c0 202 2 226 21 267 40 89 102 130 196 130 32 0 64 4 70 8 15 9
15 141 0 160 -15 19 -88 14 -143 -12z"/>
<path d="M7375 3044 c-93 -25 -153 -56 -183 -95 -31 -39 -52 -86 -52 -114 l0
-26 97 3 c89 3 98 5 101 23 10 53 79 95 157 95 93 0 147 -40 149 -111 1 -34
-5 -46 -31 -69 -19 -17 -48 -30 -74 -34 -263 -40 -319 -55 -362 -95 -48 -44
-67 -92 -67 -168 0 -119 63 -190 192 -217 90 -19 205 0 278 45 54 33 72 30 85
-12 6 -17 17 -19 102 -19 94 0 95 0 88 23 -4 12 -9 157 -12 322 -2 169 -8 311
-14 326 -15 37 -66 82 -119 104 -34 13 -79 18 -180 21 -74 1 -144 0 -155 -2z
m271 -440 c14 -53 -14 -165 -50 -199 -69 -65 -203 -72 -258 -12 -42 44 -39 99
7 165 8 10 119 43 165 48 30 4 62 10 70 15 31 17 59 10 66 -17z"/>
<path d="M2244 3027 c-12 -7 -14 -70 -14 -392 l0 -385 100 0 100 0 0 384 c0
297 -3 387 -12 393 -17 10 -156 10 -174 0z"/>
<path d="M2577 3028 c-8 -5 -8 -19 0 -50 11 -45 89 -278 104 -313 11 -25 87
-247 103 -300 7 -22 18 -53 24 -68 7 -16 12 -33 12 -38 0 -5 52 -9 120 -9
l119 0 11 43 c6 23 22 71 35 107 13 36 27 77 31 93 3 15 10 30 15 33 5 3 9 14
9 24 0 10 13 54 29 97 16 43 38 107 49 143 12 36 33 98 47 138 37 104 37 104
-64 104 -97 1 -99 -1 -125 -90 -9 -31 -30 -100 -46 -152 -16 -52 -37 -120 -46
-150 -9 -30 -25 -75 -36 -98 -26 -59 -38 -47 -77 81 -18 56 -43 136 -56 177
-13 41 -33 110 -46 153 -16 53 -28 77 -38 77 -126 4 -165 4 -174 -2z"/>
<path d="M5810 3028 c-19 -7 -20 -20 -20 -393 l0 -386 98 3 97 3 3 373 c1 207
-2 380 -7 389 -7 13 -26 17 -80 17 -40 1 -81 -2 -91 -6z"/>
<path d="M2063 1842 c-9 -6 -13 -59 -15 -187 -3 -163 -5 -180 -21 -183 -10 -2
-33 10 -52 27 -21 18 -63 39 -106 51 -69 21 -74 21 -137 5 -91 -22 -134 -47
-183 -104 -55 -64 -89 -154 -96 -258 -13 -187 55 -343 185 -420 44 -26 55 -28
157 -28 117 0 166 15 207 64 28 33 56 27 60 -11 l3 -33 75 -6 c41 -3 81 -3 88
-1 10 3 12 118 10 546 l-3 541 -80 3 c-44 1 -86 -1 -92 -6z m-105 -455 c131
-88 135 -375 5 -474 -32 -25 -45 -28 -108 -28 -62 0 -76 3 -107 27 -20 15 -49
49 -64 75 -27 45 -29 54 -28 163 0 101 3 120 23 158 56 103 186 140 279 79z"/>
<path d="M3353 1843 c-18 -7 -19 -1068 -1 -1079 14 -9 163 -8 178 1 7 4 10
182 10 540 0 477 -2 534 -16 539 -19 7 -153 7 -171 -1z"/>
<path d="M4093 1842 c-9 -6 -3 -34 23 -107 20 -55 42 -122 49 -150 8 -27 29
-95 48 -150 19 -55 51 -154 72 -220 21 -66 41 -129 45 -140 14 -35 47 -138 70
-212 34 -109 28 -106 165 -107 141 -1 128 -13 185 165 22 68 44 133 49 144 5
11 14 38 19 60 11 41 88 274 103 310 4 11 25 72 45 135 20 63 40 120 44 125 4
6 11 26 14 45 4 19 12 45 18 57 6 12 8 29 5 38 -6 13 -23 15 -114 13 -99 -3
-108 -5 -111 -23 -2 -11 -7 -29 -12 -40 -4 -11 -25 -74 -45 -140 -21 -66 -47
-149 -60 -185 -13 -36 -39 -119 -60 -185 -40 -132 -64 -185 -81 -185 -12 0
-24 30 -77 195 -19 61 -53 166 -75 235 -22 69 -52 166 -68 215 -15 50 -31 96
-37 103 -11 13 -193 17 -214 4z"/>
<path d="M5975 1838 c-3 -7 -4 -251 -3 -543 l3 -530 85 -5 c47 -3 91 -4 98 -2
10 3 12 117 10 546 l-3 541 -93 3 c-68 2 -94 -1 -97 -10z"/>
<path d="M6387 1843 c-4 -3 -7 -246 -7 -538 0 -414 3 -535 13 -542 12 -10 148
-9 173 1 12 4 14 97 14 540 l0 534 -22 6 c-31 8 -163 8 -171 -1z"/>
<path d="M2725 1555 c-90 -20 -153 -52 -206 -105 -55 -55 -81 -103 -103 -187
-43 -167 8 -350 125 -445 24 -20 55 -39 69 -43 14 -4 31 -13 39 -19 9 -7 64
-11 150 -11 136 0 136 0 196 34 33 18 68 43 78 55 39 45 88 127 82 136 -3 6
-40 10 -81 10 -70 0 -77 -2 -102 -29 -67 -71 -182 -92 -270 -49 -80 41 -138
186 -79 202 12 3 140 6 285 6 225 0 263 2 268 15 12 30 -17 178 -46 235 -35
68 -95 132 -152 160 -37 18 -166 52 -186 49 -4 -1 -34 -7 -67 -14z m177 -172
c40 -27 72 -92 66 -134 l-3 -24 -169 -3 c-174 -3 -196 2 -196 38 0 52 74 134
135 149 57 14 124 4 167 -26z"/>
<path d="M5331 1554 c-141 -29 -221 -83 -250 -171 -22 -68 -15 -74 85 -71 l87
3 22 40 c26 46 50 64 102 76 62 14 130 1 163 -32 78 -78 24 -170 -109 -184
-215 -23 -320 -61 -366 -135 -21 -33 -25 -52 -25 -115 0 -80 9 -102 59 -158
47 -52 84 -62 216 -62 116 1 122 2 180 33 72 39 78 39 95 7 7 -14 17 -25 22
-26 11 -1 146 -1 156 0 4 1 5 146 3 323 -4 375 -4 376 -93 427 -83 48 -236 68
-347 45z m244 -445 c11 -34 -4 -121 -28 -164 -31 -55 -87 -85 -160 -85 -61 0
-87 9 -124 43 -28 25 -32 100 -7 135 22 31 87 61 163 73 36 5 67 12 70 15 2 2
21 4 42 4 30 0 39 -5 44 -21z"/>
<path d="M7060 1554 c-135 -29 -223 -96 -281 -212 -33 -66 -34 -69 -34 -197 0
-127 1 -131 34 -197 41 -82 95 -138 170 -175 52 -26 64 -27 186 -28 113 0 136
3 177 22 60 28 120 82 153 139 38 65 30 74 -58 74 -69 0 -75 -2 -103 -31 -69
-74 -192 -92 -274 -40 -70 43 -116 157 -77 190 9 7 106 12 288 13 l274 3 -1
58 c-1 60 -24 152 -51 202 -46 85 -129 145 -242 176 -77 21 -76 21 -161 3z
m130 -144 c47 0 124 -105 118 -158 l-3 -27 -169 -3 c-175 -3 -196 2 -196 39 0
31 40 98 73 121 35 25 89 38 131 32 16 -2 37 -4 46 -4z"/>
<path d="M7 273 c-4 -3 -7 -61 -7 -127 0 -110 2 -122 20 -134 16 -10 930 -12
4452 -11 2459 1 4443 5 4456 10 21 8 22 13 22 139 l0 130 -4468 0 c-2458 0
-4472 -3 -4475 -7z"/>
</g>
</svg>
